<svg xmlns="http://www.w3.org/2000/svg" viewBox="0 0 80 80">
  <path d="M36 6L34.933594 8.8945312L32 9.0527344L34.283203 11.017578L33.533203 14L36 12.332031L38.466797 14L37.716797 11.017578L40 9.0527344L37.066406 8.8945312L36 6 z M 48.613281 6.0117188C47.809195 6.0698911 47.053895 6.3781001 46.412109 6.8378906C44.700682 8.0639989 43.565572 10.248314 42.646484 12.601562C40.808309 17.308062 40.009766 22.855469 40.009766 22.855469 A 1.000726 1.000726 0 1 0 41.990234 23.144531C41.990234 23.144531 42.795691 17.716875 44.509766 13.328125C45.366803 11.13375 46.494693 9.2396416 47.576172 8.4648438C48.116911 8.0774447 48.58677 7.9390615 49.148438 8.0195312C49.710104 8.1000013 50.430622 8.4455129 51.304688 9.2890625 A 1.0007323 1.0007323 0 1 0 52.695312 7.8496094C51.621627 6.8134089 50.536711 6.1993387 49.431641 6.0410156C49.155373 6.0014349 48.88131 5.992328 48.613281 6.0117188 z M 57.470703 14.011719L56.669922 14.414062L56.511719 15.294922L57.125 15.949219L57.470703 16.011719L58.271484 15.609375L58.429688 14.728516L57.818359 14.074219L57.470703 14.011719 z M 22.880859 14.302734L22.080078 14.705078L21.921875 15.585938L22.535156 16.240234L22.880859 16.302734L23.683594 15.900391L23.839844 15.019531L23.228516 14.365234L22.880859 14.302734 z M 26.830078 14.310547L26.027344 14.710938L25.871094 15.59375L26.482422 16.248047L26.830078 16.310547L27.630859 15.908203L27.789062 15.027344L27.175781 14.373047L26.830078 14.310547 z M 53.572266 14.75L52.769531 15.150391L52.613281 16.033203L53.224609 16.6875L53.572266 16.75L54.373047 16.347656L54.53125 15.466797L53.917969 14.8125L53.572266 14.75 z M 61.365234 14.832031L60.564453 15.234375L60.40625 16.115234L61.019531 16.769531L61.365234 16.832031L62.166016 16.431641L62.324219 15.548828L61.712891 14.894531L61.365234 14.832031 z M 19.242188 15.925781L18.441406 16.328125L18.283203 17.210938L18.896484 17.865234L19.242188 17.925781L20.044922 17.525391L20.201172 16.642578L19.589844 15.988281L19.242188 15.925781 z M 30.34375 16.15625L29.542969 16.558594L29.384766 17.439453L29.998047 18.09375L30.34375 18.15625L31.146484 17.755859L31.302734 16.873047L30.691406 16.21875L30.34375 16.15625 z M 64.800781 16.84375L63.998047 17.246094L63.841797 18.128906L64.453125 18.783203L64.800781 18.84375L65.601562 18.443359L65.759766 17.560547L65.146484 16.90625L64.800781 16.84375 z M 50.189453 16.857422L49.388672 17.259766L49.230469 18.140625L49.84375 18.794922L50.189453 18.857422L50.992188 18.457031L51.148438 17.574219L50.537109 16.919922L50.189453 16.857422 z M 16.013672 18.28125L15.212891 18.681641L15.054688 19.564453L15.666016 20.21875L16.013672 20.28125L16.814453 19.878906L16.972656 18.998047L16.361328 18.34375L16.013672 18.28125 z M 33.105469 19.035156L32.304688 19.4375L32.146484 20.318359L32.757812 20.972656L33.105469 21.035156L33.90625 20.634766L34.064453 19.751953L33.451172 19.097656L33.105469 19.035156 z M 47.449219 19.761719L46.648438 20.162109L46.490234 21.044922L47.103516 21.699219L47.449219 21.761719L48.251953 21.359375L48.408203 20.476562L47.796875 19.822266L47.449219 19.761719 z M 67.392578 19.865234L66.589844 20.265625L66.433594 21.148438L67.044922 21.802734L67.392578 21.865234L68.193359 21.462891L68.351562 20.582031L67.738281 19.927734L67.392578 19.865234 z M 13.03125 20.947266L12.230469 21.347656L12.072266 22.230469L12.685547 22.884766L13.03125 22.947266L13.832031 22.544922L13.990234 21.662109L13.378906 21.007812L13.03125 20.947266 z M 35.259766 22.400391L34.458984 22.800781L34.300781 23.683594L34.914062 24.337891L35.259766 24.400391L36.060547 23.998047L36.21875 23.117188L35.607422 22.462891L35.259766 22.400391 z M 45.339844 23.152344L44.539062 23.552734L44.380859 24.435547L44.992188 25.089844L45.339844 25.152344L46.140625 24.75L46.298828 23.869141L45.685547 23.214844L45.339844 23.152344 z M 68.890625 23.552734L68.087891 23.955078L67.931641 24.835938L68.542969 25.492188L68.890625 25.552734L69.691406 25.152344L69.849609 24.269531L69.236328 23.615234L68.890625 23.552734 z M 9.5 24 A 1.5 1.5 0 0 0 9.5 27 A 1.5 1.5 0 0 0 9.5 24 z M 37 26L36.199219 26.402344L36.041016 27.283203L36.652344 27.9375L37 28L37.800781 27.597656L37.958984 26.716797L37.347656 26.0625L37 26 z M 56.150391 26.03125C53.933345 26.096255 51.58695 27.08352 49.310547 29.253906 A 1.0001 1.0001 0 1 0 50.689453 30.701172C53.769649 27.764427 56.289195 27.495994 58.740234 28.5C61.191274 29.504006 63.579549 32.032918 65.580078 35.023438C69.581137 41.004474 72.048828 48.630859 72.048828 48.630859 A 1.0001 1.0001 0 1 0 73.951172 48.019531C73.951172 48.019531 71.466628 40.227073 67.242188 33.912109C65.129966 30.754628 62.587445 27.915884 59.498047 26.650391C58.725697 26.334017 57.920791 26.132251 57.091797 26.058594C56.780924 26.030972 56.467111 26.021964 56.150391 26.03125 z M 43.787109 26.833984L42.986328 27.234375L42.828125 28.117188L43.439453 28.771484L43.787109 28.833984L44.587891 28.431641L44.746094 27.550781L44.134766 26.896484L43.787109 26.833984 z M 19 27L17.933594 29.894531L15 30.052734L17.283203 32.017578L16.533203 35L19 33.332031L21.466797 35L20.716797 32.017578L23 30.052734L20.066406 29.894531L19 27 z M 26.005859 28 A 1.0001 1.0001 0 1 0 25.994141 30C28.077172 30.01267 30.479225 31.209451 33.220703 34.625 A 1.0001 1.0001 0 1 0 34.779297 33.375C31.818777 29.686549 28.854828 28.017329 26.005859 28 z M 71.5 28 A 1.5 1.5 0 0 0 71.5 31 A 1.5 1.5 0 0 0 71.5 28 z M 42.767578 30.697266L41.966797 31.099609L41.808594 31.982422L42.419922 32.636719L42.767578 32.697266L43.568359 32.296875L43.726562 31.414062L43.113281 30.759766L42.767578 30.697266 z M 14.054688 33.708984 A 1.0001 1.0001 0 0 0 13.230469 34.144531C9.2815113 39.746444 7.0507813 46.498047 7.0507812 46.498047 A 1.000256 1.000256 0 1 0 8.9492188 47.128906C8.9492188 47.128906 11.150192 40.566962 14.865234 35.296875 A 1.0001 1.0001 0 0 0 14.054688 33.708984 z M 52 35 A 1.0001 1.0001 0 1 0 52 37C53.141447 37 54.522834 38.013823 55.878906 39.871094C57.234979 41.728364 58.510043 44.297645 59.576172 46.880859C61.708431 52.047287 63.03125 57.246094 63.03125 57.246094 A 1.0001 1.0001 0 1 0 64.96875 56.753906C64.96875 56.753906 63.625069 51.452713 61.423828 46.119141C60.323207 43.452355 59.013005 40.771636 57.494141 38.691406C55.975276 36.611177 54.191553 35 52 35 z M 39 36 A 2 2 0 0 0 39 40 A 2 2 0 0 0 39 36 z M 29.162109 36.744141L28.361328 37.144531L28.203125 38.027344L28.816406 38.681641L29.162109 38.744141L29.964844 38.341797L30.121094 37.460938L29.509766 36.806641L29.162109 36.744141 z M 25.429688 38.003906L24.628906 38.404297L24.470703 39.287109L25.082031 39.941406L25.429688 40.003906L26.230469 39.601562L26.388672 38.720703L25.775391 38.066406L25.429688 38.003906 z M 45.732422 39.761719 A 1.0001 1.0001 0 0 0 45.365234 41.671875C46.34121 42.132286 47.212376 43.038427 47.953125 44.296875 A 1.0001 1.0001 0 1 0 49.675781 43.283203C48.802531 41.799651 47.682821 40.55487 46.216797 39.863281 A 1.0001 1.0001 0 0 0 45.732422 39.761719 z M 22.574219 40.78125L21.773438 41.183594L21.615234 42.066406L22.226562 42.720703L22.574219 42.78125L23.375 42.380859L23.533203 41.498047L22.919922 40.84375L22.574219 40.78125 z M 33.96875 41.992188 A 1.0001 1.0001 0 0 0 33.357422 42.234375C31.690271 43.634502 29.793483 45.289341 28.070312 49.630859 A 1.0002924 1.0002924 0 1 0 29.929688 50.369141C31.540517 46.310659 32.975729 45.165498 34.642578 43.765625 A 1.0001 1.0001 0 0 0 33.96875 41.992188 z M 20.384766 44.125L19.583984 44.527344L19.425781 45.408203L20.039062 46.0625L20.384766 46.125L21.1875 45.724609L21.34375 44.841797L20.732422 44.1875L20.384766 44.125 z M 41 45L40.199219 45.402344L40.041016 46.283203L40.652344 46.9375L41 47L41.800781 46.597656L41.958984 45.716797L41.347656 45.0625L41 45 z M 53 45L51.933594 47.894531L49 48.052734L51.283203 50.017578L50.533203 53L53 51.332031L55.466797 53L54.716797 50.017578L57 48.052734L54.066406 47.894531L53 45 z M 18.607422 47.705078L17.804688 48.107422L17.648438 48.988281L18.259766 49.642578L18.607422 49.705078L19.408203 49.304688L19.566406 48.421875L18.953125 47.767578L18.607422 47.705078 z M 41 49L40.199219 49.402344L40.041016 50.283203L40.652344 50.9375L41 51L41.800781 50.597656L41.958984 49.716797L41.347656 49.0625L41 49 z M 17.138672 51.423828L16.337891 51.826172L16.179688 52.707031L16.791016 53.363281L17.138672 53.423828L17.939453 53.023438L18.097656 52.140625L17.486328 51.486328L17.138672 51.423828 z M 27.5 53L26.300781 56.257812L23 56.433594L25.568359 58.644531L24.724609 62L27.5 60.125L30.275391 62L29.431641 58.644531L32 56.433594L28.699219 56.257812L27.5 53 z M 41 53L40.199219 53.402344L40.041016 54.283203L40.652344 54.9375L41 55L41.800781 54.597656L41.958984 53.716797L41.347656 53.0625L41 53 z M 53.294922 54.871094 A 1.0001 1.0001 0 0 0 52.376953 56.117188C53.856346 62.274476 53.861328 67.976563 53.861328 67.976562 A 1.0001 1.0001 0 1 0 55.861328 67.976562C55.861328 67.976562 55.866828 62.079101 54.322266 55.650391 A 1.0001 1.0001 0 0 0 53.294922 54.871094 z M 15.886719 55.222656L15.085938 55.625L14.927734 56.505859L15.541016 57.160156L15.886719 57.222656L16.689453 56.822266L16.845703 55.939453L16.234375 55.285156L15.886719 55.222656 z M 41 57L40.199219 57.402344L40.041016 58.283203L40.652344 58.9375L41 59L41.800781 58.597656L41.958984 57.716797L41.347656 57.0625L41 57 z M 13.5 60 A 1.5 1.5 0 0 0 13.5 63 A 1.5 1.5 0 0 0 13.5 60 z M 66.197266 60.419922L65.189453 63.152344L62.419922 63.302734L64.576172 65.158203L63.867188 67.976562L66.197266 66.402344L68.529297 67.976562L67.820312 65.158203L69.976562 63.302734L67.205078 63.152344L66.197266 60.419922 z M 41 61L40.199219 61.402344L40.041016 62.283203L40.652344 62.9375L41 63L41.800781 62.597656L41.958984 61.716797L41.347656 61.0625L41 61 z M 24.951172 63.939453 A 1.0001 1.0001 0 0 0 23.951172 64.832031C23.723913 66.696562 23.630859 67.898438 23.630859 67.898438 A 1.0001 1.0001 0 1 0 25.625 68.052734C25.625 68.052734 25.71476 66.901688 25.9375 65.074219 A 1.0001 1.0001 0 0 0 24.951172 63.939453 z M 41 65L40.199219 65.402344L40.041016 66.283203L40.652344 66.9375L41 67L41.800781 66.597656L41.958984 65.716797L41.347656 65.0625L41 65 z M 41 69L40.199219 69.402344L40.041016 70.283203L40.652344 70.9375L41 71L41.800781 70.597656L41.958984 69.716797L41.347656 69.0625L41 69 z M 41 73L40.199219 73.402344L40.041016 74.283203L40.652344 74.9375L41 75L41.800781 74.597656L41.958984 73.716797L41.347656 73.0625L41 73 z" fill="#ED9B2A" />
</svg>