<svg xmlns="http://www.w3.org/2000/svg" viewBox="0 0 80 80">
  <path d="M40 7C21.786448 7 7 21.786448 7 40C7 58.213552 21.786448 73 40 73C58.213552 73 73 58.213552 73 40C73 21.786448 58.213552 7 40 7 z M 40 9C57.132672 9 71 22.867328 71 40C71 57.132672 57.132672 71 40 71C22.867328 71 9 57.132672 9 40C9 22.867328 22.867328 9 40 9 z M 40 12 A 1 1 0 0 0 39 13 A 1 1 0 0 0 40 14 A 1 1 0 0 0 41 13 A 1 1 0 0 0 40 12 z M 34.732422 12.519531 A 1 1 0 0 0 33.732422 13.519531 A 1 1 0 0 0 34.732422 14.519531 A 1 1 0 0 0 35.732422 13.519531 A 1 1 0 0 0 34.732422 12.519531 z M 45.267578 12.519531 A 1 1 0 0 0 44.267578 13.519531 A 1 1 0 0 0 45.267578 14.519531 A 1 1 0 0 0 46.267578 13.519531 A 1 1 0 0 0 45.267578 12.519531 z M 29.667969 14.054688 A 1 1 0 0 0 28.667969 15.054688 A 1 1 0 0 0 29.667969 16.054688 A 1 1 0 0 0 30.667969 15.054688 A 1 1 0 0 0 29.667969 14.054688 z M 50.332031 14.054688 A 1 1 0 0 0 49.332031 15.054688 A 1 1 0 0 0 50.332031 16.054688 A 1 1 0 0 0 51.332031 15.054688 A 1 1 0 0 0 50.332031 14.054688 z M 25 16.550781 A 1 1 0 0 0 24 17.550781 A 1 1 0 0 0 25 18.550781 A 1 1 0 0 0 26 17.550781 A 1 1 0 0 0 25 16.550781 z M 55 16.550781 A 1 1 0 0 0 54 17.550781 A 1 1 0 0 0 55 18.550781 A 1 1 0 0 0 56 17.550781 A 1 1 0 0 0 55 16.550781 z M 20.908203 19.908203 A 1 1 0 0 0 19.908203 20.908203 A 1 1 0 0 0 20.908203 21.908203 A 1 1 0 0 0 21.908203 20.908203 A 1 1 0 0 0 20.908203 19.908203 z M 59.091797 19.908203 A 1 1 0 0 0 58.091797 20.908203 A 1 1 0 0 0 59.091797 21.908203 A 1 1 0 0 0 60.091797 20.908203 A 1 1 0 0 0 59.091797 19.908203 z M 17.550781 24 A 1 1 0 0 0 16.550781 25 A 1 1 0 0 0 17.550781 26 A 1 1 0 0 0 18.550781 25 A 1 1 0 0 0 17.550781 24 z M 62.449219 24 A 1 1 0 0 0 61.449219 25 A 1 1 0 0 0 62.449219 26 A 1 1 0 0 0 63.449219 25 A 1 1 0 0 0 62.449219 24 z M 30 26C25.041484 26 21 30.041484 21 35L21 45C21 49.958516 25.041484 54 30 54C34.958516 54 39 49.958516 39 45 A 1.0001 1.0001 0 0 0 38 44L33 44 A 1.0001 1.0001 0 0 0 32 45C32 46.116666 31.116666 47 30 47C28.883334 47 28 46.116666 28 45L28 35C28 33.883334 28.883334 33 30 33C31.116666 33 32 33.883334 32 35 A 1.0001 1.0001 0 0 0 33 36L38 36 A 1.0001 1.0001 0 0 0 39 35C39 30.041484 34.958516 26 30 26 z M 50 26C45.041484 26 41 30.041484 41 35L41 45C41 49.958516 45.041484 54 50 54C54.958516 54 59 49.958516 59 45 A 1.0001 1.0001 0 0 0 58 44L53 44 A 1.0001 1.0001 0 0 0 52 45C52 46.116666 51.116666 47 50 47C48.883334 47 48 46.116666 48 45L48 35C48 33.883334 48.883334 33 50 33C51.116666 33 52 33.883334 52 35 A 1.0001 1.0001 0 0 0 53 36L58 36 A 1.0001 1.0001 0 0 0 59 35C59 30.041484 54.958516 26 50 26 z M 30 28C33.522452 28 36.297406 30.621174 36.798828 34L33.796875 34C33.340521 32.293637 31.843594 31 30 31C27.802666 31 26 32.802666 26 35L26 45C26 47.197334 27.802666 49 30 49C31.843594 49 33.340521 47.706363 33.796875 46L36.798828 46C36.297406 49.378826 33.522452 52 30 52C26.122516 52 23 48.877484 23 45L23 35C23 31.122516 26.122516 28 30 28 z M 50 28C53.522452 28 56.297406 30.621174 56.798828 34L53.796875 34C53.340521 32.293637 51.843594 31 50 31C47.802666 31 46 32.802666 46 35L46 45C46 47.197334 47.802666 49 50 49C51.843594 49 53.340521 47.706363 53.796875 46L56.798828 46C56.297406 49.378826 53.522452 52 50 52C46.122516 52 43 48.877484 43 45L43 35C43 31.122516 46.122516 28 50 28 z M 15.054688 28.667969 A 1 1 0 0 0 14.054688 29.667969 A 1 1 0 0 0 15.054688 30.667969 A 1 1 0 0 0 16.054688 29.667969 A 1 1 0 0 0 15.054688 28.667969 z M 64.945312 28.667969 A 1 1 0 0 0 63.945312 29.667969 A 1 1 0 0 0 64.945312 30.667969 A 1 1 0 0 0 65.945312 29.667969 A 1 1 0 0 0 64.945312 28.667969 z M 13.519531 33.732422 A 1 1 0 0 0 12.519531 34.732422 A 1 1 0 0 0 13.519531 35.732422 A 1 1 0 0 0 14.519531 34.732422 A 1 1 0 0 0 13.519531 33.732422 z M 66.480469 33.732422 A 1 1 0 0 0 65.480469 34.732422 A 1 1 0 0 0 66.480469 35.732422 A 1 1 0 0 0 67.480469 34.732422 A 1 1 0 0 0 66.480469 33.732422 z M 13 39 A 1 1 0 0 0 12 40 A 1 1 0 0 0 13 41 A 1 1 0 0 0 14 40 A 1 1 0 0 0 13 39 z M 67 39 A 1 1 0 0 0 66 40 A 1 1 0 0 0 67 41 A 1 1 0 0 0 68 40 A 1 1 0 0 0 67 39 z M 13.519531 44.267578 A 1 1 0 0 0 12.519531 45.267578 A 1 1 0 0 0 13.519531 46.267578 A 1 1 0 0 0 14.519531 45.267578 A 1 1 0 0 0 13.519531 44.267578 z M 66.480469 44.267578 A 1 1 0 0 0 65.480469 45.267578 A 1 1 0 0 0 66.480469 46.267578 A 1 1 0 0 0 67.480469 45.267578 A 1 1 0 0 0 66.480469 44.267578 z M 15.054688 49.332031 A 1 1 0 0 0 14.054688 50.332031 A 1 1 0 0 0 15.054688 51.332031 A 1 1 0 0 0 16.054688 50.332031 A 1 1 0 0 0 15.054688 49.332031 z M 64.945312 49.332031 A 1 1 0 0 0 63.945312 50.332031 A 1 1 0 0 0 64.945312 51.332031 A 1 1 0 0 0 65.945312 50.332031 A 1 1 0 0 0 64.945312 49.332031 z M 17.550781 54 A 1 1 0 0 0 16.550781 55 A 1 1 0 0 0 17.550781 56 A 1 1 0 0 0 18.550781 55 A 1 1 0 0 0 17.550781 54 z M 62.449219 54 A 1 1 0 0 0 61.449219 55 A 1 1 0 0 0 62.449219 56 A 1 1 0 0 0 63.449219 55 A 1 1 0 0 0 62.449219 54 z M 20.908203 58.091797 A 1 1 0 0 0 19.908203 59.091797 A 1 1 0 0 0 20.908203 60.091797 A 1 1 0 0 0 21.908203 59.091797 A 1 1 0 0 0 20.908203 58.091797 z M 59.091797 58.091797 A 1 1 0 0 0 58.091797 59.091797 A 1 1 0 0 0 59.091797 60.091797 A 1 1 0 0 0 60.091797 59.091797 A 1 1 0 0 0 59.091797 58.091797 z M 25 61.449219 A 1 1 0 0 0 24 62.449219 A 1 1 0 0 0 25 63.449219 A 1 1 0 0 0 26 62.449219 A 1 1 0 0 0 25 61.449219 z M 55 61.449219 A 1 1 0 0 0 54 62.449219 A 1 1 0 0 0 55 63.449219 A 1 1 0 0 0 56 62.449219 A 1 1 0 0 0 55 61.449219 z M 29.667969 63.945312 A 1 1 0 0 0 28.667969 64.945312 A 1 1 0 0 0 29.667969 65.945312 A 1 1 0 0 0 30.667969 64.945312 A 1 1 0 0 0 29.667969 63.945312 z M 50.332031 63.945312 A 1 1 0 0 0 49.332031 64.945312 A 1 1 0 0 0 50.332031 65.945312 A 1 1 0 0 0 51.332031 64.945312 A 1 1 0 0 0 50.332031 63.945312 z M 34.732422 65.480469 A 1 1 0 0 0 33.732422 66.480469 A 1 1 0 0 0 34.732422 67.480469 A 1 1 0 0 0 35.732422 66.480469 A 1 1 0 0 0 34.732422 65.480469 z M 45.267578 65.480469 A 1 1 0 0 0 44.267578 66.480469 A 1 1 0 0 0 45.267578 67.480469 A 1 1 0 0 0 46.267578 66.480469 A 1 1 0 0 0 45.267578 65.480469 z M 40 66 A 1 1 0 0 0 39 67 A 1 1 0 0 0 40 68 A 1 1 0 0 0 41 67 A 1 1 0 0 0 40 66 z" fill="#ED9B2A" />
</svg>