<svg xmlns="http://www.w3.org/2000/svg" viewBox="0 0 100 100">
  <path d="M24.634766 13.001953C12.66722 13.198454 3 22.983323 3 35L3 35.5C3 37.973438 5.026562 40 7.5 40C9.973438 40 12 37.973438 12 35.5L12 35.394531C12 28.368869 17.387535 22.343844 24.369141 22.015625C31.85379 21.662804 38 27.600142 38 35L38 42L33 42C29.698375 42 27 44.698375 27 48L27 69C27 77.82448 34.17552 85 43 85L69 85C77.82448 85 85 77.82448 85 69L85 48C85 44.698375 82.301625 42 79 42L47 42L47 35.503906C47 23.598537 37.72941 13.438197 25.800781 13.013672C25.410193 12.99981 25.020815 12.995614 24.634766 13.001953 z M 24.667969 15.001953C25.019823 14.996264 25.374369 14.999081 25.730469 15.011719C36.56184 15.397194 45 24.635275 45 35.503906L45 42L40 42L40 35C40 26.487858 32.870741 19.612399 24.275391 20.017578C16.196996 20.397359 10 27.344194 10 35.394531L10 35.5C10 36.892562 8.892562 38 7.5 38C6.107438 38 5 36.892562 5 35.5L5 35C5 24.053427 13.760486 15.178317 24.667969 15.001953 z M 33 44L79 44C81.220375 44 83 45.779625 83 48L83 51L71.5 51 A 0.50005 0.50005 0 1 0 71.5 52L73.939453 52L68.328125 60L61.548828 60L67.160156 52L68.5 52 A 0.50005 0.50005 0 1 0 68.5 51L63.5 51 A 0.50005 0.50005 0 1 0 63.5 52L65.939453 52L60.328125 60L53.548828 60L59.160156 52L60.5 52 A 0.50005 0.50005 0 1 0 60.5 51L29 51L29 48C29 45.779625 30.779625 44 33 44 z M 29 52L33.939453 52L29 59.041016L29 52 z M 35.160156 52L41.939453 52L36.328125 60L29.548828 60L35.160156 52 z M 43.160156 52L49.939453 52L44.328125 60L37.548828 60L43.160156 52 z M 51.160156 52L57.939453 52L52.328125 60L45.548828 60L51.160156 52 z M 75.160156 52L81.939453 52L76.328125 60L69.548828 60L75.160156 52 z M 83 52.228516L83 60L77.548828 60L83 52.228516 z M 29 61L83 61L83 69C83 76.74352 76.74352 83 69 83L43 83C35.25648 83 29 76.74352 29 69L29 61 z M 56 65C54.348906 65 53 66.348906 53 68C53 68.791037 53.351585 69.47878 53.855469 70.015625L52.015625 77.378906 A 0.50005 0.50005 0 0 0 52.5 78L59.5 78 A 0.50005 0.50005 0 0 0 59.984375 77.378906L58.144531 70.015625C58.648415 69.47878 59 68.791037 59 68C59 66.348906 57.651094 65 56 65 z M 56 66C57.110906 66 58 66.889094 58 68C58 68.619351 57.721795 69.166642 57.283203 69.533203 A 0.50005 0.50005 0 0 0 57.119141 70.039062L58.859375 77L53.140625 77L54.880859 70.039062 A 0.50005 0.50005 0 0 0 54.716797 69.533203C54.278205 69.166642 54 68.619351 54 68C54 66.889094 54.889094 66 56 66 z" fill="#ED9B2A" />
</svg>